<svg xmlns="http://www.w3.org/2000/svg" width="900" height="470" viewBox="0 0 900 470">
<defs><marker id="a" markerWidth="10" markerHeight="10" refX="9" refY="3" orient="auto"><path d="M0,0 L10,3 L0,6 Z" fill="#475569"/></marker></defs><style>text{font-family:Arial,sans-serif;fill:#172033}.box{fill:#eef4fb;stroke:#416788;stroke-width:2;rx:10}.ok{fill:#eaf6ee;stroke:#3d8052;stroke-width:2;rx:10}.no{fill:#fff0f0;stroke:#a33a3a;stroke-width:2;rx:10}.t{font-size:16px;text-anchor:middle}.b{font-weight:bold}.line{stroke:#475569;stroke-width:2;fill:none;marker-end:url(#a)}.lab{font-size:14px;fill:#475569;text-anchor:middle}</style>
<rect class="box" x="300" y="20" width="300" height="70"/><text class="t" x="450" y="48"><tspan class="b">panel_predictions.parquet</tspan><tspan x="450" dy="22">215,320 parcel-years</tspan></text>
<rect class="box" x="40" y="135" width="240" height="80"/><text class="t" x="160" y="164"><tspan class="b">S4 — temporal transfer</tspan><tspan x="160" dy="22">does the model work k years</tspan><tspan x="160" dy="19">from the label year?</tspan></text>
<rect class="box" x="330" y="135" width="240" height="80"/><text class="t" x="450" y="164"><tspan class="b">S5 — flicker</tspan><tspan x="450" dy="22">is a parcel's series a</tspan><tspan x="450" dy="19">trajectory or noise?</tspan></text>
<rect class="box" x="620" y="135" width="240" height="80"/><text class="t" x="740" y="164"><tspan class="b">El Niño confound</tspan><tspan x="740" dy="22">does 1998 imagery</tspan><tspan x="740" dy="19">break the model?</tspan></text>
<path class="line" d="M400 90L180 135"/><path class="line" d="M450 90V135"/><path class="line" d="M500 90L720 135"/>
<polygon points="450,250 510,290 450,330 390,290" fill="#fff8e5" stroke="#9a7620" stroke-width="2"/><text class="t" x="450" y="296">gate</text><path class="line" d="M160 215L410 275"/><path class="line" d="M450 215V250"/><path class="line" d="M740 215L490 275"/>
<rect class="ok" x="90" y="370" width="280" height="65"/><text class="t" x="230" y="397"><tspan>trajectories → transitions</tspan><tspan x="230" dy="20">→ area trend with CIs</tspan></text><rect class="no" x="530" y="370" width="280" height="65"/><text class="t" x="670" y="397"><tspan class="b">STOP.</tspan><tspan x="670" dy="20">write up the negative result</tspan></text><path class="line" d="M410 305L280 370"/><text class="lab" x="335" y="340">all pass</text><path class="line" d="M490 305L620 370"/><text class="lab" x="565" y="340">S4 or S5 fails</text>
</svg>
